<mxfile host="app.diagrams.net" modified="2023-12-16T11:00:28.965Z" agent="Mozilla/5.0 (Macintosh; Intel Mac OS X 10_15_7) AppleWebKit/537.36 (KHTML, like Gecko) Chrome/120.0.0.0 Safari/537.36" etag="YJe9YqFsxIr4jQHItLNs" version="22.1.11" type="github">
  <diagram name="Page-1" id="5f0bae14-7c28-e335-631c-24af17079c00">
    <mxGraphModel dx="1235" dy="724" grid="1" gridSize="10" guides="1" tooltips="1" connect="1" arrows="1" fold="1" page="1" pageScale="1" pageWidth="1100" pageHeight="850" background="none" math="0" shadow="0">
      <root>
        <mxCell id="0" />
        <mxCell id="1" parent="0" />
        <mxCell id="GiOZhM3CU5dUD0LUnLF2-21" value="" style="ellipse;shape=cloud;whiteSpace=wrap;html=1;fillColor=#dae8fc;strokeColor=#6c8ebf;" vertex="1" parent="1">
          <mxGeometry x="510" y="270" width="480" height="280" as="geometry" />
        </mxCell>
        <mxCell id="GiOZhM3CU5dUD0LUnLF2-9" value="RM" style="ellipse;whiteSpace=wrap;html=1;aspect=fixed;dashed=1;fillColor=#f5f5f5;strokeColor=#666666;fontColor=#333333;" vertex="1" parent="1">
          <mxGeometry x="700" y="340" width="163.38" height="163.38" as="geometry" />
        </mxCell>
        <mxCell id="GiOZhM3CU5dUD0LUnLF2-13" value="" style="shape=image;html=1;verticalAlign=top;verticalLabelPosition=bottom;labelBackgroundColor=#ffffff;imageAspect=0;aspect=fixed;image=https://cdn0.iconfinder.com/data/icons/construction-2-21/512/construction-industry-building-08-128.png" vertex="1" parent="1">
          <mxGeometry x="750" y="440" width="45" height="45" as="geometry" />
        </mxCell>
        <mxCell id="GiOZhM3CU5dUD0LUnLF2-20" value="RPA" style="ellipse;shape=cloud;whiteSpace=wrap;html=1;fillColor=#d5e8d4;strokeColor=#82b366;" vertex="1" parent="1">
          <mxGeometry x="240" y="305" width="180" height="180" as="geometry" />
        </mxCell>
        <mxCell id="GiOZhM3CU5dUD0LUnLF2-24" value="" style="shape=image;verticalLabelPosition=bottom;labelBackgroundColor=default;verticalAlign=top;aspect=fixed;imageAspect=0;image=data:image/png,iVBORw0KGgoAAAANSUhEUgAAABQAAABICAYAAAD2xdWBAAAAAXNSR0IArs4c6QAAAIRlWElmTU0AKgAAAAgABQESAAMAAAABAAEAAAEaAAUAAAABAAAASgEbAAUAAAABAAAAUgEoAAMAAAABAAIAAIdpAAQAAAABAAAAWgAAAAAAAABIAAAAAQAAAEgAAAABAAOgAQADAAAAAQABAACgAgAEAAAAAQAAABSgAwAEAAAAAQAAAEgAAAAAvAS/NAAAAAlwSFlzAAALEwAACxMBAJqcGAAABkxJREFUWAnVl0tsVVUUhgsIFOVVBAoISHmlohhAEIo8UosxatT4ikFxYDRxZCJxbuJIwkQHmqhxgANjYkzUqAERC1ZUFIogyqtSbJGnPIoWBazo992efeCcu2+lnfknX88++7HO2mutvW/aq6y0pjC0BObArGTaVp6bYR00JX2ZR6/MW+fLdB5PQi1UQn8oB3UWzsFRWA9vwA4oqXsY+RBc8Be4+HdoS2jneR4cOwLOdU2qK9JW5/ae5r0G3I5fbwaNdoBy/gCYDcvAXej9H7AOUo2h9R448A+shCroDXn1peNh0Fvnusa12kgXPES7Dvy6W9wEh+AC5KWXgyDE1TWu1UbBoB1PgE+1Dw6AW1X9oAJGw1iYDCPAGB6DM5Da8GvzwBKxrbbB6UKr889EHjNBY1eBH5I34WqwKuaDNrRV9gKYOeMhy2E4qD7wErj1MN5AewYoPVsKjmljhUHXci9QLtwFv/mC3J7JCeP2GVvDooaA65VzJmvQEvCpWuFXsM7UjVDIXuGtrOwkT42ZODUQqgutThtzNKQRXVbWn0EO71NpG7uggzR2hxeebvn65N01rRr8CUJ57KFtfSnLYhKY0SC3uz15MYnG2pAobTTZ2QiPghoJZsyy6Qt/gwbMqnH9GJpBmXE/aE0qPWzUYD2cBr9WA5bCCTA5X8N60KB97ibsYChtY6w0pg1tFfQBf71JHAi8TDtsh2aRZtKzEZzvWm2k2X2F9mEwDkEmy6/GZDjM/jRwjWu1kRpcS/tdaLMThS1YPoYlj/fkXKgA17hWG5mC7c/7i2CCBoO1dhROQQiHhq09420CvWneguVgnDOy0v3yM7AT9E409ie42Od5cPGP4FzXuLagtBE6eI4Cq38BmPUp4NaU3jaB2Tchu8FbJ1XMoINuTcPjwDLyRCg9tHysUw11wP9MfXrgr+ffYzc0WWviUvXEoMa8YRaC9XoQUvm17krP7ocVcGd+cU8MWpfWongbZWR55HU7HQ+AZROTJWQ5ud0ih2IGxzNxHlQli3hkpBEvh+Og0YxiBr2VvwMLt2gBfZ55PSyPjccMasxrywV5+QEvhnthcX7Q95hBPZRSMrbe1LWxCTGDYZ6x8qq6EkK9mlXfW2Aj7IeMSl0OLroG9GQChMvBa8uLYQ94V5oYy6dL+ZEl8BUYsxjb6L8PSjnE0EVZNp+B2wvGPK8S3n36wemQUSyGi5gxFtzSa/Ap+HOg3PpieArGwK2wA1LFDOqhyfBWXgNbQW+ViToL18HdMA4yihkMcfHp74hbDbpAw1s7KMwN79E6/JlRDc2EZbAF9Ep5Ssy8vzXOaYH/1FRmvA8a8fdjO3yZ4CkytpaKsZ0NGYWCvbTzJC/GanCCP1IjEwbx9EOWzTuwGgxDqqIYJCP2u+U60GMLXWmsFb6BnXA6gUfPpZePwduwNG/GrXVXllQ1LIRJ+cWxstGDYeAlmpcnxIL2d0UV5SBm8DYmPgIujKkfnaPAOPuBjGIGNTQXPH5d6RCDl2XQulsFI2IL6PN3+QaohCLFPPRkeN8VxYc+PRoNj8ODUKSYQc+qdCVPy3E4k58U8yI/J/9u9oeAaxthN6S6XINm1LniBeGzHU7AfkgV23I6mDT0ZgYsgFvA28az7bZfh3pIFTOoN/OgFrxNJkEFeJ4HgL/XnrAO8CxnFDM4nxnPgsaCofO0D4MxswL2JuzimVHM4E3MEEvkE3DRATgCZjbg/356mVHMoPeg/d5z4v3YlHCMp96WlNnKq5IOtzsBxsBE8E6UyeCRHA7GVOPnIFXMoB4NBJOjh94802AReHH4NOteECalBVLFDLYz2gD18ANYHmfBn1J/AS3sa6EK2uBzSBWLoYN61prwkR3IO/DSerQWi5Litroj69AYG7dT4N1otrvUXEZXwXNgQpShuQsso2bw5/R58HbPKLbl6cy4GfRCD9RsWAYLwOy6VeO6CVZDqt5p62LDLXl+QxI0UAdm2MvAmH4P42EWZBQzaBaNrSdFo3qrMQv+C3gV9Mxbx1s9o9iWrS23VA13gAb1ZB8Yw81gX1Qxg/6n7nmtAY0aeGPZANacOygHP9oOGcW27Ha+BctiGLj9LbAGWsCMW+CH4BfIyMG8zK7bMosWcyOshLVgXJVneC9sAI9qqn8ByQKG3qn9+QYAAAAASUVORK5CYII=;rotation=-90;" vertex="1" parent="1">
          <mxGeometry x="771.9699999999999" y="370" width="19.44" height="70" as="geometry" />
        </mxCell>
        <mxCell id="GiOZhM3CU5dUD0LUnLF2-26" value="" style="sketch=0;outlineConnect=0;fontColor=#232F3E;gradientColor=none;fillColor=#01A88D;strokeColor=none;dashed=0;verticalLabelPosition=bottom;verticalAlign=top;align=center;html=1;fontSize=12;fontStyle=0;aspect=fixed;shape=mxgraph.aws4.transfer_for_ftp_resource;" vertex="1" parent="1">
          <mxGeometry x="350" y="40" width="130" height="133.42" as="geometry" />
        </mxCell>
        <mxCell id="GiOZhM3CU5dUD0LUnLF2-28" value="" style="endArrow=classic;html=1;rounded=0;exitX=0.522;exitY=0.117;exitDx=0;exitDy=0;exitPerimeter=0;" edge="1" parent="1" source="GiOZhM3CU5dUD0LUnLF2-20" target="GiOZhM3CU5dUD0LUnLF2-26">
          <mxGeometry width="50" height="50" relative="1" as="geometry">
            <mxPoint x="248.87367396384388" y="279.99731447930554" as="sourcePoint" />
            <mxPoint x="350" y="163.07" as="targetPoint" />
          </mxGeometry>
        </mxCell>
        <mxCell id="GiOZhM3CU5dUD0LUnLF2-29" value="RepositÃ³rio de &lt;br&gt;Documentos" style="text;html=1;align=center;verticalAlign=middle;resizable=0;points=[];autosize=1;strokeColor=none;fillColor=none;" vertex="1" parent="1">
          <mxGeometry x="340" y="30" width="100" height="40" as="geometry" />
        </mxCell>
        <mxCell id="GiOZhM3CU5dUD0LUnLF2-30" value="" style="ellipse;shape=cloud;whiteSpace=wrap;html=1;fillColor=#fff2cc;strokeColor=#d6b656;" vertex="1" parent="1">
          <mxGeometry x="530" width="530" height="290" as="geometry" />
        </mxCell>
        <mxCell id="GiOZhM3CU5dUD0LUnLF2-31" value="" style="ellipse;whiteSpace=wrap;html=1;aspect=fixed;dashed=1;" vertex="1" parent="1">
          <mxGeometry x="820.01" y="78.13" width="143.75" height="143.75" as="geometry" />
        </mxCell>
        <mxCell id="GiOZhM3CU5dUD0LUnLF2-32" value="" style="shape=image;html=1;verticalAlign=top;verticalLabelPosition=bottom;labelBackgroundColor=#ffffff;imageAspect=0;aspect=fixed;image=https://cdn0.iconfinder.com/data/icons/construction-2-21/512/construction-industry-building-08-128.png" vertex="1" parent="1">
          <mxGeometry x="861.89" y="150" width="50" height="50" as="geometry" />
        </mxCell>
        <mxCell id="GiOZhM3CU5dUD0LUnLF2-34" value="" style="shape=image;verticalLabelPosition=bottom;labelBackgroundColor=default;verticalAlign=top;aspect=fixed;imageAspect=0;image=data:image/png,iVBORw0KGgoAAAANSUhEUgAAACUAAACACAYAAACMT6BeAAAAAXNSR0IArs4c6QAAAIRlWElmTU0AKgAAAAgABQESAAMAAAABAAEAAAEaAAUAAAABAAAASgEbAAUAAAABAAAAUgEoAAMAAAABAAIAAIdpAAQAAAABAAAAWgAAAAAAAABIAAAAAQAAAEgAAAABAAOgAQADAAAAAQABAACgAgAEAAAAAQAAACWgAwAEAAAAAQAAAIAAAAAA2zV86gAAAAlwSFlzAAALEwAACxMBAJqcGAAADm1JREFUeAHtW3lsFtUWP12+9ute9kUKLciqUDYRBZQdERR8iA8imibGGKLEGAn8oZGn0WggikpigEfCYxcBE4EEfOwIsu/7KksRKJStLd173/kdnC/z9fvanplpiC/hNF9n5s6de39z7rnnnuVOhGGivxlF/s3wCJxHoLSj8ohTjzil5YC23v+/TN2+fZuOHDlCxcXFQS9969Ytunz5MuXn5weVu76ARtcQAzGzZ8827dq1M3PnzjVlZWXy2K5du8yECRPMiBEjzKeffmpOnTqlaa7aOlTtXdvNCxcumIEDB2JJMoMGDTIFBQXmzJkzpn///lKGcvzGjRtnsrOzbU86P1WD2rlzp0lKSjIpKSlmxowZ0hOOABIfH2+aNGlioqOjjd/vN4sWLXKOxPaEWtBv3rxJeXl51KBBA8rMzCTI0ebNmxkTEXOLPvnkE+rSpQsVFRXRiRMnQuROKir/qUFFRj6oik4h1Nu2baPffvuNoqKiaOjQoZSVlUXp6enSbWFhIbHMKSGEVosOLQpf0qhRI2ratClduXKFvvnmG4qNjaWcnBx68skn6emnnxbusIzJw+BmXFxc+IYUpWpOgQuvvvoqZJD27dtHv//+uzQ/ePBg6tatG7Hgy9AlJiZS27ZtyeKsAkNIFTWn6tatS+PHj6d79+4JIHT+wgsv0HvvvSeNdu/enVgl0NWrV0W2QnpyUBABoXdQn+7evUt79uyhw4cPizzVqVOH6tWrJ0NYv359qqiokOYeCqcs4KyvaNmyZbR//366fv26DBmrCmrdujW9+eabNHr0aPL5fFZ1d0ebeqjx9MCBA+aZZ54JUpbca+CaJ4OZNWuWgfb3QmrlyXpKlhOA4JllXnnlFcNCLoA6d+5sOnToIOcdO3Y0ULReSD37oAp++eUXioiIEJ00c+ZMmXUYHwj81KlTqX379rJgMygUuyY1KMyqS5cuUatWrei1116jhg0biqCjZ15miNfDAEhe+0RFuEWlBlVSUiJ9JCQkCCBc8BBJGa95hPvQVSAIOjS9W1KDwrS3tPjx48eD+jt9+jR9/vnntH79egED5ckLc1AdRxdagTx//rzp27evCPOLL75oWMbMF198IdewEvDjjs2wYcPMuXPntM2GrafmVFpaGr3xxhvywlgHU1NTqbS0VK7v379P+DFo0eotW7Z0xJjKldXLDOSGrUuxBKAoMTyNGzemJ554QhTnyy+/TMylgLxV7sjJtXqZwfIBYcbyAQHHdXl5uRwhaxBs6zomJsaToKs5BcONTV1ZcMElAIPOwg/nINhQuP7qq6/o9ddfd8KcoLpqUJCfP//8U2yooBbCXMBC9UJqUNA9kCEMm326gzMQcrhfuAelCmvBE4Wdk2EKWV7Eg2Hfzth/cLV4aA0vNaIS4Ong2gtBHmqF5s+fb5KTk8WjWbBggac21XqqpuFgF4see+wxEXYs3piJbkktUzV1AGXKthY1a9ZMbHTImltS6yltB+ASJgU8GrfAamX4ENhA4AMOKdytpUuXugaEl/c0fHfu3KGTJ0/STz/9RAsXLqQbN24IQ73a6I5B8bQSBQrO/PjjjwLIUpZwu9q0aUPpf3nK2iEPqaedu9BHbHman3/+2bDlaXi9E73EDRq2tUyfPn3Ml19+aRCd8UpqPcXxAwEDENaPVYA4EHPmzDFwLGqL1KDYVTc8PAFACPvAozl69GhtYQm0E/UvJn7zGgnrGta33NxcgoDjGs4ETGOUwVyBaw+7yys50lMI8WzYsIFWrVolYSCYMxZ17dqVhg8fLrEqnMNrdk0Bnjk4gdBv2rTJTJw40XDExbDhFxhWdhrMmjVrHLQWWlUtU6GPPijhYIf57LPPZPax9Sngvv3226qqq8o9CwBCQPjBQV23bh2tXbvWs52ulims+ohNQcDtaxq/utjtEHScnz17ljhYSxkZGYTIHkJGiJHCs7Y/V528qTkFlx1rGwKwVXm/6BTgPvjgAwGKib1x40Z66qmn6OuvvxavpzowgXuqQeZKe/fulWgLPxgQ6qrOYfBB8yM0ZNVZvXq1tiuj5hQCq/DxoJvgUoHAGfwwpBg6HEEYPjikMPwQWEvntRBBXC2pZQrOAWQEvh8cBwADEPwwnChHOBvXkCeEHbdu3UoHDx4kjl+JAWi9TE3g1KDsDXGsQGwmmC3w9WBtvvTSS8SLsr2anMM1c2zK8JupiblhFi9eLEkjDgkF5AUWAw+P+eijjwxPBHV7VVUEu9X066+/Gvb9AmCYFUHnPPPEfOHlSN1muIpqUAj9wI4CEJYpwxEYw6kQmZU89Q07oXIPsc/t27eH60tdpga1e/duw56vdDxy5Mgg+wlrIQw8DCNAf//992oA4SqqHQdMbWSyMN179+4tAX2RZP6H2derVy/iBKUUIaGE2eqW1KD4jaQP6KVwswkhItwDWXXlwsU/NSgELsAlGHgsMyH5PCSQrFho8+bNJWLsAs+DR8KNabiyixcvGjbiRGYYnJk2bVqgGpYgKxPBsXTDecDAPTcnakFH4ytXrjSY9khuV+4YqVukc2FbscJ0gyXwjCONjjg5W5UixEgOcSvCbsgShhWWBNY7uOxeyBEodAQgsM05eS3JSCwjCMyyZ0PPPfecp4xo4EUCPFOcIFgGUxfKE/gq/8aMGeM5hg4YapmCguR4geGhEjAI5lvgWEVIsAwgoemvXbumeMWqq6hBIePQr18/AQRBx26O999/X66x/GRlZRk4DnBYOUlZdY+KO2o9hcjwjh07xE768MMP6e233yYOJ4oYwM/jZYYGDBgg+10Q/IB95ZbUoOAFw4iD7dSjRw/pz7I0UY4Zh5kHQrzqoYCyrEbMNoCwEww9bAuA0QeC9n8o+xLABSSNONRDbFdJoNXyathbFg+GdwhRixYtxA+07tnBa8/Vw4fIL2IF4NJm3uPCMyzgQGAtxNoH2x2y1rNnT23/YeupvRkkIXmG0R9//CGKEpwDNxBlQYYB3srYsWPpnXfeIWRPvZAjjQ55wlKDMCII3IHHAqsA9hS8YBAmgJfNEmpQCLKygxkQcrjxEGYktVn1iCkDww7lSHLDVXdNCl0mVRDJs1Ky3FnIEmMv82oOq2UKsgO5gqAjXmAnDKuV9gD3LKVqr+PkXA0KgjxlyhTZbWYPIeIctjti6dDk8I7TH1bIuqZh5o1eskDD41mxYkVN1au9r9ZTNbEfSw/2I4BrvFEnxIav6Xn7/VoDxa8etCUAS49bUssUOkHIGgJtuVLoFPoI4aG5c+cSdnKAsBx5UaBqUFjzYLJgeOyCbtnniMQAuLVxUNC5/VetxNluQk/ZIy3cX4iugpDPmzfPszej5hT0D7iAhdgf66dI/ovgH7F1nJSSRJldMmnUP0aJ82DnpBtmqZcZ7KzOvpxNFWWGfFE+KqL7VGSKKC4ijpJ8yZSQnEgpddgSfeC5u8ESeEYNynriQtkZ2nrnv5RdfJFKTDHFRvopLaYl9UrqTxmxra1qno5qUMUVbEfdWUurcpdSQXk+GR42YzimLsMYQSnRdWh4vdHUN3UoRUeopSIsePXT5wpP0Yob83nIColjwWTYPPFFxlBpxYPtSrfK2Iq4uZA5F0d9UgaG7UxbqAYVH51I/qgEyi/No3bxHWlo3VHU2NeUsksu0rrbK+lM4Qm6U5bL3FxD6f5WlBabocUQUk8NqhED6J3cn/bmb6esxhOo+V+dpvkzqIGvES3KmU0nC47QxaKzdKHo3MMB5WeBbpfQkYeuIgDIesWWcW2pQ3wmYYgLKgoop+QqlZoS8kUEmzhW/ZqO6rWPcwsy/ZOjU0LahM6Ki0ygKP6D8JcZtq/46JbUoCq4k5zS68yN08Ite4eYjddKroiKiI7wUWJUMsXwJHBLalB3y2/TnrxtdCBvp6gGq8NyKqcd9zbR/vwdmJOUGl2PmsW2YN6pm7aaChzVgg5leTB/N4FjS67Ppl33tlCTmDS6UnyJzhed4uF6YKpkJnanjDhvSlQNqn50Q2rOM+1s4UmRneMFh+hw/n5WlOz7RfpYsEupfXwnGlJ3JCVHpQbe2s2JWqOj8Wsl2bQsZx4dKdgns0sWOl7r/FF+6prUk4Yl/5MS7vP65zOUnJQcZHc5AecIlNXw+aLTdLrwGE//fEr11aGM6DYUdS2WVq1cTXP+82/57ACesltSD5+9g5b+NpQR1Zry7ubT8f3HafqSGbRk+RLKvZUr1awQkf0ZJ+eOQMEOxw4gBNAQaUEwFsENi+DOIxDiJAtqPRt0tBmX1Z4iXbZlyxbz7rvvyidO3IhYnrBGOZAm32khSIudQ15JHfM8dOhQIH1mAeK9Leatt94yHOjwiiPoebWGQ9insjuOeBRceYQSESLykrmyD596VxDiBxYoCDI248Dlgkyxs0Ccn5HdQfzKsi0cgF1TEN8UF8gjY/PNxx9/bIYMGRK09wDDygFZ2ZOgaKrKKmqZqtwCD5XEy3m3Yoir9d1331Wu7ujakUqAzPDnlxIrwGd0CLxib4tFkK9OnTrJpgqrzM1RrdHx2dwPP/wgWSx88mTFCiBnjz/+OCHA/+yzz8reBOze8BJeVA8fPGR2SIOGCtsBJk+ebHjnj6PhqamyWiVgbzAS2nZCBI8zphKQRXDf4p69jptz9fBBFx07dkw+y2TNLkdk4EFQF/wNlmxJev755yVH4ykRWRMrw93Hxgn+LstMmjTJ8MerQUOK7SXLly8P95i6TC1T0E9Y13i2yc599ICkJGSNPxYzo0aNkhwyM85Mnz5dDSBcRfXwIUeM1BriU7x1JPAxmIwf/8NHYdjqhi2XSLHxV0jWLcdHtZ5CcAw/LB/hpjtSbvhBLXhJFuEN1JxCWBH78RBHx4YtKxXimA2KB9SgrLa85l2sdqo7OgZVXWO1dU+tPGurQ007j0BpuIQ6jzj1iFNaDmjr/Q+MYkDvt1lxrwAAAABJRU5ErkJggg==;rotation=-90;" vertex="1" parent="1">
          <mxGeometry x="873.15" y="72.89" width="29.35" height="101.54" as="geometry" />
        </mxCell>
        <mxCell id="GiOZhM3CU5dUD0LUnLF2-35" value="Abertura de Chamado&lt;br&gt;InserÃ§Ã£o / AtualizaÃ§Ã£o de dados&lt;br&gt;RelatÃ³rios" style="text;html=1;align=center;verticalAlign=middle;resizable=0;points=[];autosize=1;strokeColor=none;fillColor=none;rotation=-20;" vertex="1" parent="1">
          <mxGeometry x="640" y="170" width="190" height="60" as="geometry" />
        </mxCell>
        <mxCell id="GiOZhM3CU5dUD0LUnLF2-36" value="" style="endArrow=classic;html=1;rounded=0;entryX=0;entryY=0.5;entryDx=0;entryDy=0;" edge="1" parent="1" source="GiOZhM3CU5dUD0LUnLF2-20" target="GiOZhM3CU5dUD0LUnLF2-32">
          <mxGeometry width="50" height="50" relative="1" as="geometry">
            <mxPoint x="570" y="270" as="sourcePoint" />
            <mxPoint x="620" y="220" as="targetPoint" />
          </mxGeometry>
        </mxCell>
        <mxCell id="GiOZhM3CU5dUD0LUnLF2-37" value="Pesquisa e &lt;br&gt;Consulta de documentos fiscais" style="text;html=1;align=center;verticalAlign=middle;resizable=0;points=[];autosize=1;strokeColor=none;fillColor=none;" vertex="1" parent="1">
          <mxGeometry x="195" y="180" width="190" height="40" as="geometry" />
        </mxCell>
        <mxCell id="GiOZhM3CU5dUD0LUnLF2-38" value="" style="endArrow=classic;html=1;rounded=0;entryX=0;entryY=0.5;entryDx=0;entryDy=0;" edge="1" parent="1" target="GiOZhM3CU5dUD0LUnLF2-13">
          <mxGeometry width="50" height="50" relative="1" as="geometry">
            <mxPoint x="410" y="386.86" as="sourcePoint" />
            <mxPoint x="600" y="423.13272727272727" as="targetPoint" />
          </mxGeometry>
        </mxCell>
        <mxCell id="GiOZhM3CU5dUD0LUnLF2-41" value="ETL&lt;br&gt;RelatÃ³rios" style="text;html=1;align=center;verticalAlign=middle;resizable=0;points=[];autosize=1;strokeColor=none;fillColor=none;rotation=15;" vertex="1" parent="1">
          <mxGeometry x="605" y="400" width="80" height="40" as="geometry" />
        </mxCell>
      </root>
    </mxGraphModel>
  </diagram>
</mxfile>
